<!DOCTYPE svg PUBLIC "-//W3C//DTD SVG 1.1//EN" "http://www.w3.org/Graphics/SVG/1.1/DTD/svg11.dtd">
<!-- Uploaded to: SVG Repo, www.svgrepo.com, Transformed by: SVG Repo Mixer Tools -->
<svg fill="#000000" width="800px" height="800px" viewBox="0 0 24 24" id="diary-left" data-name="Flat Color" xmlns="http://www.w3.org/2000/svg" class="icon flat-color">
<g id="SVGRepo_bgCarrier" stroke-width="0"/>
<g id="SVGRepo_tracerCarrier" stroke-linecap="round" stroke-linejoin="round"/>
<g id="SVGRepo_iconCarrier">
<rect id="primary" x="4" y="2" width="18" height="20" rx="2" style="fill: #1a192f;"/>
<path id="secondary" d="M22,4V20a2,2,0,0,1-2,2H18V2h2A2,2,0,0,1,22,4ZM3.69,5.29l-1.4,1.4a1,1,0,0,0,0,1.4L8.9,14.71a1,1,0,0,0,.71.29H11a1,1,0,0,0,1-1V12.61a1.05,1.05,0,0,0-.29-.71L5.09,5.29A1,1,0,0,0,3.69,5.29Z" style="fill: #8e51ff;"/>
</g>
</svg>